<svg xmlns="http://www.w3.org/2000/svg" viewBox="0 0 100 100"><title>Phone</title><g id="Layer_42"><path d="M25.25,14a2.52,2.52,0,0,0-1.5.1c-5.4,2.1-8.8,9.8-9.6,15.1-2.5,17.2,11.1,32.1,23.6,41.9,11.1,8.7,32.4,23,45,9.2,1.6-1.7,3.5-4.2,3.4-6.7-.3-4.2-4.2-7.2-7.2-9.5-2.3-1.7-7.1-6.4-10.1-6.3-2.7.1-4.4,2.9-6.1,4.6l-3,3c-.5.5-6.9-3.7-7.6-4.2a51,51,0,0,1-7.3-5.7,47.15,47.15,0,0,1-5.9-6.8c-.5-.7-4.6-6.8-4.2-7.3,0,0,3.5-3.8,4.5-5.3,2.1-3.2,3.7-5.7,1.3-9.5a22.36,22.36,0,0,0-3.2-3.7,60.86,60.86,0,0,0-6.6-5.8C29.45,16.11,27.25,14.31,25.25,14Z"/></g></svg>